# xmcd CD database file
#
# Track frame offsets:
#	150
#	30539
#	57172
#	97954
#	116984
#	157928
#	197504
#	224158
#	248686
#	303525
#
# Disc length: 4426 seconds
#
# Revision: 0
# Processed by: cddbd v1.4PL0 Copyright (c) Steve Scherf et al.
# Submitted via: CDex 1.51
#
DISCID=8611480a
DTITLE=J Haze - Intro
DYEAR=1999
DGENRE=Jazz
TTITLE0=Intro
TTITLE1=Open Clouds
TTITLE2=Make Me Sick
TTITLE3=Flags Over the Gate
TTITLE4=War
TTITLE5=Mr. 5-O
TTITLE6=Handwriting
TTITLE7=Little Things
TTITLE8=I Stand
TTITLE9=War (Outro)
EXTD=YEAR: 1999
EXTT0=
EXTT1=
EXTT2=
EXTT3=
EXTT4=
EXTT5=
EXTT6=
EXTT7=
EXTT8=
EXTT9=
PLAYORDER=
